<svg width="326" height="35" fill="none" xmlns="http://www.w3.org/2000/svg"><path d="M205.541 1.122h-31.058v4.617h31.058V1.122zM205.541 10.355h-31.058v4.617h31.058v-4.617zM205.541 19.57h-31.058v4.617h31.058V19.57zM205.541 28.804h-31.058v4.616h31.058v-4.616zM233.719 27.253c2.314 0 4.011-1.711 4.011-3.94 0-2.174-1.645-3.796-4.045-3.796h-5.879v7.736h5.913zm-1.44-13.244c1.954 0 3.343-1.444 3.343-3.422 0-1.907-1.389-3.333-3.291-3.333h-4.542v6.755h4.49zM221.07 1.122h12.341c4.953 0 8.861 3.476 8.861 8.253 0 3.101-1.474 5.561-3.959 6.488 4.096.749 6.239 3.975 6.239 8.021 0 5.472-4.011 9.536-9.444 9.536H221.07V1.122zM259.412 1.122h-6.856v32.28h6.856V1.122zM284.283.623c5.039 0 9.496 2.317 12.564 6.025l-4.68 4.117c-1.953-2.264-4.765-3.654-7.884-3.654-5.519 0-9.839 4.35-9.839 10.196 0 5.828 4.32 10.142 9.839 10.142 3.119 0 5.965-1.39 7.936-3.708l4.679 4.118c-3.068 3.743-7.576 6.06-12.615 6.06-9.221 0-16.712-6.987-16.712-16.63 0-9.625 7.491-16.666 16.712-16.666zM304.097 1.122H325.3V7.61h-14.33v6.078h13.404v6.346H310.97v6.898h14.655v6.488h-21.528V1.122zM10.776 31.335c3.908 0 6.873-3.048 6.873-7.077 0-4.028-2.914-7.023-7.044-7.023H2.737v14.1h8.04zM9.56 15.007c3.36 0 5.828-2.477 5.828-5.846 0-3.422-2.417-5.954-5.794-5.954H2.737v11.8H9.56zM.406.962h9.325c4.525 0 7.987 3.368 7.987 8.11 0 3.19-1.526 5.846-4.268 6.79 3.994.571 6.513 4.118 6.513 8.432 0 5.294-3.908 9.322-9.067 9.322H.406V.962zM46.222 22.44L39.315 4.705l-6.908 17.753h13.815v-.018zM38.406.962h1.834l12.872 32.636h-2.52l-3.496-8.894H31.482l-3.446 8.895h-2.52L38.407.962zM61.254.962h2.023l19.917 28.234V.962h2.33v32.636h-1.919l-20.02-28.43v28.43h-2.33V.962zM110.567.391c4.799 0 9.015 2.068 11.929 5.472l-1.577 1.551c-2.468-2.995-6.102-4.777-10.37-4.777-7.935 0-13.866 6.274-13.866 14.652 0 8.342 5.931 14.616 13.866 14.616 4.268 0 7.988-1.836 10.405-4.866l1.611 1.55c-2.914 3.512-7.216 5.58-12.033 5.58-9.015 0-16.197-7.22-16.197-16.862C94.369 7.61 101.499.39 110.567.39zM145.036 31.852c7.901 0 13.78-6.275 13.78-14.563 0-8.289-5.964-14.616-13.78-14.616-7.851 0-13.867 6.327-13.867 14.616 0 8.288 5.914 14.563 13.867 14.563zm0-31.46c8.981 0 16.146 7.218 16.146 16.897 0 9.696-7.182 16.862-16.146 16.862-9.016 0-16.146-7.166-16.146-16.862C128.872 7.61 136.003.39 145.036.39z" fill="#326295"/></svg>